<?xml version="1.0" encoding="UTF-8"?>
<svg
    xmlns="http://www.w3.org/2000/svg"
    viewBox="0 0 100 70">

    <!-- Camera Body -->
    <path
        d="M12 24h10l3.5-5.5h49l3.5 5.5h10a5 5 0 0 1 5 5v26a5 5 0 0 1-5 5H12a5 5 0 0 1-5-5V29a5 5 0 0 1 5-5z"
        fill="#111827"/>

    <!-- Shutter Button -->
    <rect
        x="76"
        y="20"
        width="8"
        height="4"
        rx="1"
        fill="#facc15"/>

    <!-- Dial -->
    <rect
        x="18"
        y="20"
        width="6"
        height="4"
        rx="1"
        fill="#4b5563"/>

    <!-- Lens Outer Ring -->
    <circle
        cx="50"
        cy="40"
        r="19"
        fill="#ffffff"
        stroke="#111827"
        stroke-width="2"/>

    <!-- Lens Inner -->
    <circle
        cx="50"
        cy="40"
        r="15"
        fill="#111827"/>

    <!-- Yellow Lens -->
    <circle
        cx="50"
        cy="40"
        r="12.5"
        fill="#facc15"/>

    <!-- Left Eye -->
    <circle
        cx="45.5"
        cy="36.5"
        r="1.5"
        fill="#000000"/>

    <!-- Right Eye -->
    <circle
        cx="54.5"
        cy="36.5"
        r="1.5"
        fill="#000000"/>

    <!-- Smile -->
    <path
        d="M43 42c1.5 3 5.5 3 7 0"
        stroke="#000000"
        stroke-width="2.2"
        stroke-linecap="round"
        fill="none"/>

    <!-- Highlight -->
    <circle
        cx="55.5"
        cy="33.5"
        r="0.8"
        fill="#ffffff"
        opacity="0.8"/>

</svg>